<svg width="28" height="28" viewBox="0 0 28 28" fill="none" xmlns="http://www.w3.org/2000/svg">
<path d="M27.1273 3.72729L25.0265 1.18821C24.6185 0.674349 23.9988 0.356964 23.2885 0.356964H5.15223C4.44189 0.356964 3.82224 0.674349 3.39906 1.18821L1.31339 3.72729C0.875094 4.24115 0.618164 4.92126 0.618164 5.64671V24.5386C0.618164 26.2011 1.97838 27.5613 3.64087 27.5613H24.7998C26.4623 27.5613 27.8225 26.2011 27.8225 24.5386V5.64671C27.8225 4.92126 27.5656 4.24115 27.1273 3.72729ZM14.2204 22.2716L5.90791 13.9592H11.1976V10.9364H17.2431V13.9592H22.5328L14.2204 22.2716ZM3.82224 3.37967L5.04643 1.86832H23.1827L24.6034 3.37967H3.82224Z" fill="#E3E3E3"/>
</svg>
